<?xml version="1.0" encoding="UTF-8"?>
<svg width="45px" height="35px" viewBox="0 0 45 35" version="1.1" xmlns="http://www.w3.org/2000/svg" xmlns:xlink="http://www.w3.org/1999/xlink">
    <!-- Generator: Sketch 55.2 (78181) - https://sketchapp.com -->
    <title>Mail</title>
    <desc>Created with Sketch.</desc>
    <g id="Page-1" stroke="none" stroke-width="1" fill="none" fill-rule="evenodd">
        <g id="Mail" fill="#000000">
            <path d="M41.72,0.4 L3.72,0.4 C2.06314575,0.4 0.72,1.74314575 0.72,3.4 L0.72,31.4 C0.72,33.0568542 2.06314575,34.4 3.72,34.4 L41.72,34.4 C43.3768542,34.4 44.72,33.0568542 44.72,31.4 L44.72,3.4 C44.72,1.74314575 43.3768542,0.4 41.72,0.4 Z M41.72,29.28 L33.78,21.34 C33.1889805,20.7892823 32.2679806,20.8055322 31.6967564,21.3767564 C31.1255322,21.9479806 31.1092823,22.8689805 31.66,23.46 L39.6,31.4 L5.84,31.4 L13.78,23.46 C14.3307177,22.8689805 14.3144678,21.9479806 13.7432436,21.3767564 C13.1720194,20.8055322 12.2510195,20.7892823 11.66,21.34 L3.72,29.28 L3.72,10.03 L21.72,23.6 C22.2533333,24 22.9866667,24 23.52,23.6 L41.7,10.02 L41.72,29.28 Z M41.72,3.4 L41.72,6.28 L22.65,20.53 L3.72,6.28 L3.72,3.4 L41.72,3.4 Z" id="Shape"></path>
        </g>
    </g>
</svg>